# xmcd
#
# Track frame offsets:
#	150
#	19660
#	43288
#	66108
#	86243
#	106103
#	124648
#	147610
#	170103
#	193428
#	213563
#	238053
#	257380
#	277170
#
# Disc length: 3991 seconds
#
# Revision: 2
# Processed by: cddbd v1.4PL0 Copyright (c) Steve Scherf et al.
# Submitted via: EasyCDDAExtractor 5.0.7
#
DISCID=de0f950e
DTITLE=Various Artist - Tinh Ca Vu Thanh An
DYEAR=1900
DGENRE=
TTITLE0=Le Thu - Bai khong ten so 2
TTITLE1=Vu Khanh - Bai khong ten so 4
TTITLE2=Khanh Ly - Em den tham anh dem 30
TTITLE3=Elvis Phuong - Bai khong ten so 5
TTITLE4=Nhu Mai - Bai khong ten so 8
TTITLE5=Duy Quang - Bai khong ten so 1
TTITLE6=Le Thu - Bai khong ten so 3
TTITLE7=Chau Dinh An - Bai khong ten so 9
TTITLE8=Khanh Ly - Loi tinh buon
TTITLE9=Duy Quang - Bai khong ten so 6
TTITLE10=Khanh Ha - Bai khong ten so 7
TTITLE11=Huy Sinh - Dem say
TTITLE12=Kieu Nga - Dung yeu toi
TTITLE13=Elvis Phuong - Bai khong ten cuoi cung
EXTD=
EXTT0=
EXTT1=
EXTT2=
EXTT3=
EXTT4=
EXTT5=
EXTT6=
EXTT7=
EXTT8=
EXTT9=
EXTT10=
EXTT11=
EXTT12=
EXTT13=
PLAYORDER=
